<mxfile host="app.diagrams.net" agent="Mozilla/5.0 (Windows NT 10.0; Win64; x64) AppleWebKit/537.36 (KHTML, like Gecko) Chrome/130.0.0.0 YaBrowser/24.12.0.0 Safari/537.36" version="26.0.14">
  <diagram name="Страница — 1" id="FEXJ1sAwJLQPXR9GuisX">
    <mxGraphModel dx="2713" dy="1658" grid="1" gridSize="10" guides="1" tooltips="1" connect="1" arrows="1" fold="1" page="1" pageScale="1" pageWidth="827" pageHeight="1169" math="0" shadow="0">
      <root>
        <mxCell id="0" />
        <mxCell id="1" parent="0" />
        <mxCell id="BFu7FJcun2RugTo2QO4e-2" value="&lt;b&gt;Начало&lt;/b&gt;" style="text;html=1;align=center;verticalAlign=middle;resizable=0;points=[];autosize=1;strokeColor=none;fillColor=none;" vertex="1" parent="1">
          <mxGeometry x="160" y="95" width="70" height="30" as="geometry" />
        </mxCell>
        <mxCell id="BFu7FJcun2RugTo2QO4e-4" value="Проверяет&amp;nbsp;&lt;div&gt;библиотеку&lt;/div&gt;" style="rounded=1;whiteSpace=wrap;html=1;" vertex="1" parent="1">
          <mxGeometry x="180" y="200" width="120" height="60" as="geometry" />
        </mxCell>
        <mxCell id="BFu7FJcun2RugTo2QO4e-5" value="" style="endArrow=classic;html=1;rounded=0;exitX=0.783;exitY=0.783;exitDx=0;exitDy=0;exitPerimeter=0;entryX=0.5;entryY=0;entryDx=0;entryDy=0;" edge="1" parent="1" target="BFu7FJcun2RugTo2QO4e-4">
          <mxGeometry width="50" height="50" relative="1" as="geometry">
            <mxPoint x="240" y="120" as="sourcePoint" />
            <mxPoint x="310" y="130" as="targetPoint" />
          </mxGeometry>
        </mxCell>
        <mxCell id="BFu7FJcun2RugTo2QO4e-6" value="Открытие" style="edgeLabel;html=1;align=center;verticalAlign=middle;resizable=0;points=[];" vertex="1" connectable="0" parent="BFu7FJcun2RugTo2QO4e-5">
          <mxGeometry x="-0.1583" y="-1" relative="1" as="geometry">
            <mxPoint as="offset" />
          </mxGeometry>
        </mxCell>
        <mxCell id="BFu7FJcun2RugTo2QO4e-7" value="" style="ellipse;whiteSpace=wrap;html=1;aspect=fixed;fillColor=#000000;" vertex="1" parent="1">
          <mxGeometry x="230" y="100" width="20" height="20" as="geometry" />
        </mxCell>
        <mxCell id="BFu7FJcun2RugTo2QO4e-8" value="" style="endArrow=classic;html=1;rounded=0;exitX=0.5;exitY=1;exitDx=0;exitDy=0;" edge="1" parent="1" source="BFu7FJcun2RugTo2QO4e-4">
          <mxGeometry width="50" height="50" relative="1" as="geometry">
            <mxPoint x="220" y="350" as="sourcePoint" />
            <mxPoint x="240" y="320" as="targetPoint" />
          </mxGeometry>
        </mxCell>
        <mxCell id="BFu7FJcun2RugTo2QO4e-10" value="Библиотека&lt;div&gt;готова&amp;nbsp;&lt;/div&gt;&lt;div&gt;к окрытию&lt;/div&gt;" style="edgeLabel;html=1;align=center;verticalAlign=middle;resizable=0;points=[];" vertex="1" connectable="0" parent="BFu7FJcun2RugTo2QO4e-8">
          <mxGeometry x="-0.1778" y="1" relative="1" as="geometry">
            <mxPoint x="-2" y="1" as="offset" />
          </mxGeometry>
        </mxCell>
        <mxCell id="BFu7FJcun2RugTo2QO4e-9" value="Библиотекарь&amp;nbsp;&lt;div&gt;раскладывает&lt;/div&gt;&lt;div&gt;книги&lt;/div&gt;" style="rounded=1;whiteSpace=wrap;html=1;" vertex="1" parent="1">
          <mxGeometry x="180" y="320" width="120" height="60" as="geometry" />
        </mxCell>
        <mxCell id="BFu7FJcun2RugTo2QO4e-11" value="Проверяет помещение" style="rounded=1;whiteSpace=wrap;html=1;" vertex="1" parent="1">
          <mxGeometry x="440" y="200" width="120" height="60" as="geometry" />
        </mxCell>
        <mxCell id="BFu7FJcun2RugTo2QO4e-12" value="" style="endArrow=none;dashed=1;html=1;rounded=0;exitX=1;exitY=0.5;exitDx=0;exitDy=0;entryX=0;entryY=0.5;entryDx=0;entryDy=0;" edge="1" parent="1" source="BFu7FJcun2RugTo2QO4e-4" target="BFu7FJcun2RugTo2QO4e-11">
          <mxGeometry width="50" height="50" relative="1" as="geometry">
            <mxPoint x="310" y="240" as="sourcePoint" />
            <mxPoint x="360" y="190" as="targetPoint" />
          </mxGeometry>
        </mxCell>
        <mxCell id="BFu7FJcun2RugTo2QO4e-13" value="Возникли проблемы" style="edgeLabel;html=1;align=center;verticalAlign=middle;resizable=0;points=[];" vertex="1" connectable="0" parent="BFu7FJcun2RugTo2QO4e-12">
          <mxGeometry x="-0.4905" y="-3" relative="1" as="geometry">
            <mxPoint x="32" y="-4" as="offset" />
          </mxGeometry>
        </mxCell>
        <mxCell id="BFu7FJcun2RugTo2QO4e-14" value="Делает привлечение&lt;div&gt;читателей&lt;/div&gt;" style="rounded=1;whiteSpace=wrap;html=1;" vertex="1" parent="1">
          <mxGeometry x="180" y="440" width="120" height="60" as="geometry" />
        </mxCell>
        <mxCell id="BFu7FJcun2RugTo2QO4e-15" value="" style="endArrow=classic;html=1;rounded=0;exitX=0.5;exitY=1;exitDx=0;exitDy=0;" edge="1" parent="1" source="BFu7FJcun2RugTo2QO4e-9">
          <mxGeometry width="50" height="50" relative="1" as="geometry">
            <mxPoint x="190" y="490" as="sourcePoint" />
            <mxPoint x="240" y="440" as="targetPoint" />
          </mxGeometry>
        </mxCell>
        <mxCell id="BFu7FJcun2RugTo2QO4e-21" value="Передача&lt;div&gt;другой&lt;/div&gt;&lt;div&gt;роли&lt;/div&gt;" style="edgeLabel;html=1;align=center;verticalAlign=middle;resizable=0;points=[];" vertex="1" connectable="0" parent="BFu7FJcun2RugTo2QO4e-15">
          <mxGeometry x="-0.2263" relative="1" as="geometry">
            <mxPoint as="offset" />
          </mxGeometry>
        </mxCell>
        <mxCell id="BFu7FJcun2RugTo2QO4e-19" value="Приходит новый читатель" style="rounded=1;whiteSpace=wrap;html=1;" vertex="1" parent="1">
          <mxGeometry x="180" y="560" width="120" height="60" as="geometry" />
        </mxCell>
        <mxCell id="BFu7FJcun2RugTo2QO4e-20" value="" style="endArrow=classic;html=1;rounded=0;exitX=0.5;exitY=1;exitDx=0;exitDy=0;" edge="1" parent="1" source="BFu7FJcun2RugTo2QO4e-14">
          <mxGeometry width="50" height="50" relative="1" as="geometry">
            <mxPoint x="190" y="610" as="sourcePoint" />
            <mxPoint x="240" y="560" as="targetPoint" />
          </mxGeometry>
        </mxCell>
        <mxCell id="BFu7FJcun2RugTo2QO4e-22" value="Работа&lt;div&gt;Рекламодателя&lt;/div&gt;" style="edgeLabel;html=1;align=center;verticalAlign=middle;resizable=0;points=[];" vertex="1" connectable="0" parent="BFu7FJcun2RugTo2QO4e-20">
          <mxGeometry x="-0.2263" y="-2" relative="1" as="geometry">
            <mxPoint x="2" as="offset" />
          </mxGeometry>
        </mxCell>
        <mxCell id="BFu7FJcun2RugTo2QO4e-23" value="" style="endArrow=none;dashed=1;html=1;rounded=0;exitX=1;exitY=0.5;exitDx=0;exitDy=0;" edge="1" parent="1" source="BFu7FJcun2RugTo2QO4e-19">
          <mxGeometry width="50" height="50" relative="1" as="geometry">
            <mxPoint x="450" y="310" as="sourcePoint" />
            <mxPoint x="500" y="260" as="targetPoint" />
            <Array as="points">
              <mxPoint x="500" y="590" />
            </Array>
          </mxGeometry>
        </mxCell>
        <mxCell id="BFu7FJcun2RugTo2QO4e-24" value="Библиотека&amp;nbsp;&lt;div&gt;открывается&lt;/div&gt;" style="edgeLabel;html=1;align=center;verticalAlign=middle;resizable=0;points=[];" vertex="1" connectable="0" parent="BFu7FJcun2RugTo2QO4e-23">
          <mxGeometry x="0.2229" y="-2" relative="1" as="geometry">
            <mxPoint as="offset" />
          </mxGeometry>
        </mxCell>
        <mxCell id="BFu7FJcun2RugTo2QO4e-26" value="Делает&amp;nbsp;&lt;div&gt;читательский&lt;/div&gt;&lt;div&gt;&amp;nbsp;билет&lt;/div&gt;" style="rounded=1;whiteSpace=wrap;html=1;" vertex="1" parent="1">
          <mxGeometry x="180" y="680" width="120" height="60" as="geometry" />
        </mxCell>
        <mxCell id="BFu7FJcun2RugTo2QO4e-27" value="" style="endArrow=classic;html=1;rounded=0;exitX=0.5;exitY=1;exitDx=0;exitDy=0;" edge="1" parent="1" source="BFu7FJcun2RugTo2QO4e-19">
          <mxGeometry width="50" height="50" relative="1" as="geometry">
            <mxPoint x="190" y="730" as="sourcePoint" />
            <mxPoint x="240" y="680" as="targetPoint" />
          </mxGeometry>
        </mxCell>
        <mxCell id="BFu7FJcun2RugTo2QO4e-28" value="Передача&lt;div&gt;другой&lt;/div&gt;&lt;div&gt;роли&lt;/div&gt;" style="edgeLabel;html=1;align=center;verticalAlign=middle;resizable=0;points=[];" vertex="1" connectable="0" parent="BFu7FJcun2RugTo2QO4e-27">
          <mxGeometry x="0.0162" y="-1" relative="1" as="geometry">
            <mxPoint x="-1" y="-4" as="offset" />
          </mxGeometry>
        </mxCell>
        <mxCell id="BFu7FJcun2RugTo2QO4e-29" value="Сопровождение к&amp;nbsp;&lt;div&gt;выходу&lt;/div&gt;" style="rounded=1;whiteSpace=wrap;html=1;" vertex="1" parent="1">
          <mxGeometry x="440" y="680" width="120" height="60" as="geometry" />
        </mxCell>
        <mxCell id="BFu7FJcun2RugTo2QO4e-30" value="" style="endArrow=none;dashed=1;html=1;rounded=0;entryX=0;entryY=0.5;entryDx=0;entryDy=0;" edge="1" parent="1" target="BFu7FJcun2RugTo2QO4e-29">
          <mxGeometry width="50" height="50" relative="1" as="geometry">
            <mxPoint x="300" y="710" as="sourcePoint" />
            <mxPoint x="350" y="660" as="targetPoint" />
          </mxGeometry>
        </mxCell>
        <mxCell id="BFu7FJcun2RugTo2QO4e-31" value="В выдаче&amp;nbsp;&lt;div&gt;билета&amp;nbsp;&lt;div&gt;отказано&lt;/div&gt;&lt;/div&gt;" style="edgeLabel;html=1;align=center;verticalAlign=middle;resizable=0;points=[];" vertex="1" connectable="0" parent="BFu7FJcun2RugTo2QO4e-30">
          <mxGeometry x="-0.381" y="1" relative="1" as="geometry">
            <mxPoint x="25" as="offset" />
          </mxGeometry>
        </mxCell>
        <mxCell id="BFu7FJcun2RugTo2QO4e-32" value="Добавляет&amp;nbsp;&lt;div&gt;читателя в базу&lt;/div&gt;" style="rounded=1;whiteSpace=wrap;html=1;" vertex="1" parent="1">
          <mxGeometry x="180" y="800" width="120" height="60" as="geometry" />
        </mxCell>
        <mxCell id="BFu7FJcun2RugTo2QO4e-33" value="" style="endArrow=classic;html=1;rounded=0;exitX=0.5;exitY=1;exitDx=0;exitDy=0;" edge="1" parent="1" source="BFu7FJcun2RugTo2QO4e-26">
          <mxGeometry width="50" height="50" relative="1" as="geometry">
            <mxPoint x="190" y="850" as="sourcePoint" />
            <mxPoint x="240" y="800" as="targetPoint" />
          </mxGeometry>
        </mxCell>
        <mxCell id="BFu7FJcun2RugTo2QO4e-34" value="Выдача&lt;div&gt;читательского&lt;/div&gt;&lt;div&gt;билета&lt;/div&gt;" style="edgeLabel;html=1;align=center;verticalAlign=middle;resizable=0;points=[];" vertex="1" connectable="0" parent="BFu7FJcun2RugTo2QO4e-33">
          <mxGeometry x="-0.2162" relative="1" as="geometry">
            <mxPoint x="-1" y="3" as="offset" />
          </mxGeometry>
        </mxCell>
        <mxCell id="BFu7FJcun2RugTo2QO4e-35" value="Предоставляет&amp;nbsp;&lt;div&gt;книги&lt;/div&gt;" style="rounded=1;whiteSpace=wrap;html=1;" vertex="1" parent="1">
          <mxGeometry x="180" y="920" width="120" height="60" as="geometry" />
        </mxCell>
        <mxCell id="BFu7FJcun2RugTo2QO4e-36" value="" style="endArrow=classic;html=1;rounded=0;exitX=0.5;exitY=1;exitDx=0;exitDy=0;" edge="1" parent="1" source="BFu7FJcun2RugTo2QO4e-32">
          <mxGeometry width="50" height="50" relative="1" as="geometry">
            <mxPoint x="190" y="970" as="sourcePoint" />
            <mxPoint x="240" y="920" as="targetPoint" />
          </mxGeometry>
        </mxCell>
        <mxCell id="BFu7FJcun2RugTo2QO4e-37" value="Предоставление&lt;div&gt;доступа к&amp;nbsp;&lt;/div&gt;&lt;div&gt;библиотеке&lt;/div&gt;" style="edgeLabel;html=1;align=center;verticalAlign=middle;resizable=0;points=[];" vertex="1" connectable="0" parent="BFu7FJcun2RugTo2QO4e-36">
          <mxGeometry x="-0.3374" relative="1" as="geometry">
            <mxPoint y="6" as="offset" />
          </mxGeometry>
        </mxCell>
        <mxCell id="BFu7FJcun2RugTo2QO4e-38" value="Берёт книги в аренду" style="rounded=1;whiteSpace=wrap;html=1;" vertex="1" parent="1">
          <mxGeometry x="180" y="1040" width="120" height="60" as="geometry" />
        </mxCell>
        <mxCell id="BFu7FJcun2RugTo2QO4e-39" value="" style="endArrow=classic;html=1;rounded=0;exitX=0.5;exitY=1;exitDx=0;exitDy=0;" edge="1" parent="1" source="BFu7FJcun2RugTo2QO4e-35">
          <mxGeometry width="50" height="50" relative="1" as="geometry">
            <mxPoint x="190" y="1090" as="sourcePoint" />
            <mxPoint x="240" y="1040" as="targetPoint" />
          </mxGeometry>
        </mxCell>
        <mxCell id="BFu7FJcun2RugTo2QO4e-40" value="Предоставление&lt;div&gt;книг в аренду&lt;/div&gt;" style="edgeLabel;html=1;align=center;verticalAlign=middle;resizable=0;points=[];" vertex="1" connectable="0" parent="BFu7FJcun2RugTo2QO4e-39">
          <mxGeometry x="-0.4081" y="2" relative="1" as="geometry">
            <mxPoint y="9" as="offset" />
          </mxGeometry>
        </mxCell>
        <mxCell id="BFu7FJcun2RugTo2QO4e-41" value="" style="ellipse;whiteSpace=wrap;html=1;aspect=fixed;" vertex="1" parent="1">
          <mxGeometry x="220" y="1159" width="40" height="40" as="geometry" />
        </mxCell>
        <mxCell id="BFu7FJcun2RugTo2QO4e-42" value="" style="ellipse;whiteSpace=wrap;html=1;aspect=fixed;strokeColor=default;gradientColor=none;fillColor=#000000;" vertex="1" parent="1">
          <mxGeometry x="233.5" y="1172.5" width="13" height="13" as="geometry" />
        </mxCell>
        <mxCell id="BFu7FJcun2RugTo2QO4e-43" value="&lt;b&gt;Конец&lt;/b&gt;" style="text;html=1;align=center;verticalAlign=middle;resizable=0;points=[];autosize=1;strokeColor=none;fillColor=none;" vertex="1" parent="1">
          <mxGeometry x="210" y="1200" width="60" height="30" as="geometry" />
        </mxCell>
        <mxCell id="BFu7FJcun2RugTo2QO4e-44" value="" style="endArrow=none;dashed=1;html=1;rounded=0;exitX=1;exitY=0.5;exitDx=0;exitDy=0;" edge="1" parent="1" source="BFu7FJcun2RugTo2QO4e-41">
          <mxGeometry width="50" height="50" relative="1" as="geometry">
            <mxPoint x="450" y="790" as="sourcePoint" />
            <mxPoint x="500" y="740" as="targetPoint" />
            <Array as="points">
              <mxPoint x="500" y="1180" />
            </Array>
          </mxGeometry>
        </mxCell>
        <mxCell id="BFu7FJcun2RugTo2QO4e-45" value="Конец&amp;nbsp;&lt;div&gt;работы&amp;nbsp;&lt;/div&gt;&lt;div&gt;системы&lt;/div&gt;" style="edgeLabel;html=1;align=center;verticalAlign=middle;resizable=0;points=[];" vertex="1" connectable="0" parent="BFu7FJcun2RugTo2QO4e-44">
          <mxGeometry x="0.4531" relative="1" as="geometry">
            <mxPoint as="offset" />
          </mxGeometry>
        </mxCell>
        <mxCell id="BFu7FJcun2RugTo2QO4e-46" value="" style="endArrow=none;dashed=1;html=1;rounded=0;entryX=1;entryY=0;entryDx=0;entryDy=0;" edge="1" parent="1" target="BFu7FJcun2RugTo2QO4e-41">
          <mxGeometry width="50" height="50" relative="1" as="geometry">
            <mxPoint x="300" y="950" as="sourcePoint" />
            <mxPoint x="350" y="900" as="targetPoint" />
            <Array as="points">
              <mxPoint x="430" y="950" />
              <mxPoint x="430" y="1165" />
            </Array>
          </mxGeometry>
        </mxCell>
        <mxCell id="BFu7FJcun2RugTo2QO4e-47" value="Получение&lt;div&gt;электронной&lt;/div&gt;&lt;div&gt;книги&lt;/div&gt;" style="edgeLabel;html=1;align=center;verticalAlign=middle;resizable=0;points=[];" vertex="1" connectable="0" parent="BFu7FJcun2RugTo2QO4e-46">
          <mxGeometry x="0.0072" y="-2" relative="1" as="geometry">
            <mxPoint as="offset" />
          </mxGeometry>
        </mxCell>
        <mxCell id="BFu7FJcun2RugTo2QO4e-48" value="" style="endArrow=none;dashed=1;html=1;rounded=0;exitX=0;exitY=0;exitDx=0;exitDy=0;entryX=0;entryY=0.5;entryDx=0;entryDy=0;" edge="1" parent="1" target="BFu7FJcun2RugTo2QO4e-38">
          <mxGeometry width="50" height="50" relative="1" as="geometry">
            <mxPoint x="219.9978643762994" y="1168.8578643762994" as="sourcePoint" />
            <mxPoint x="174.14" y="1074" as="targetPoint" />
            <Array as="points">
              <mxPoint x="84.14" y="1169" />
              <mxPoint x="84" y="1070" />
            </Array>
          </mxGeometry>
        </mxCell>
        <mxCell id="BFu7FJcun2RugTo2QO4e-52" value="В выдаче&lt;div&gt;книги&amp;nbsp;&lt;/div&gt;&lt;div&gt;отказано&lt;/div&gt;" style="edgeLabel;html=1;align=center;verticalAlign=middle;resizable=0;points=[];" vertex="1" connectable="0" parent="BFu7FJcun2RugTo2QO4e-48">
          <mxGeometry x="0.164" relative="1" as="geometry">
            <mxPoint as="offset" />
          </mxGeometry>
        </mxCell>
        <mxCell id="BFu7FJcun2RugTo2QO4e-53" value="" style="endArrow=classic;html=1;rounded=0;exitX=0.5;exitY=1;exitDx=0;exitDy=0;" edge="1" parent="1" source="BFu7FJcun2RugTo2QO4e-38">
          <mxGeometry width="50" height="50" relative="1" as="geometry">
            <mxPoint x="190" y="1210" as="sourcePoint" />
            <mxPoint x="240" y="1160" as="targetPoint" />
          </mxGeometry>
        </mxCell>
        <mxCell id="BFu7FJcun2RugTo2QO4e-54" value="Предоставление&lt;div&gt;книги&lt;/div&gt;" style="edgeLabel;html=1;align=center;verticalAlign=middle;resizable=0;points=[];" vertex="1" connectable="0" parent="BFu7FJcun2RugTo2QO4e-53">
          <mxGeometry x="-0.4081" relative="1" as="geometry">
            <mxPoint y="9" as="offset" />
          </mxGeometry>
        </mxCell>
      </root>
    </mxGraphModel>
  </diagram>
</mxfile>
